#!OML:ASF F:\VICON\USERDATA\INSTALL\rory3\rory3.ASF
:FULLY-SPECIFIED
:DEGREES
617
root -1.77734 18.8096 4.30077 -180.544 -85.8656 179.051
lowerback 2.68729 1.13354 -5.03606
upperback -5.98654 1.36443 5.17971
thorax -8.1257 1.11548 8.28291
lowerneck -22.1429 0.421009 -11.1229
upperneck -0.243847 1.72689 18.6275
head 3.31201 1.68631 7.97267
rclavicle 3.57812e-015 -3.02153e-014
rhumerus 66.3746 -28.1484 -22.8694
rradius 52.4812
rwrist 0.478824
rhand -33.4667 1.23964
rfingers 7.12502
rthumb -6.66473 -28.6355
lclavicle 3.57812e-015 -3.02153e-014
lhumerus 29.1066 -1.51739 -3.72617
lradius 64.1184
lwrist -0.686605
lhand -11.5081 19.8124
lfingers 7.12502
lthumb 14.531 49.2835
rfemur -3.90397 3.98999 13.7754
rtibia 41.8801
rfoot 0.80549 2.88716
rtoes -8.88971
lfemur -11.5916 -6.82523 -23.4302
ltibia 32.2502
lfoot 12.0275 1.73256
ltoes -23.7255
618
root -1.80749 18.8146 4.28323 -184.121 -86.124 182.707
lowerback 2.80974 1.20854 -4.92679
upperback -6.06587 1.44863 4.66756
thorax -8.27141 1.14148 7.64471
lowerneck -22.2015 -0.0351286 -11.6462
upperneck -0.47309 1.25186 19.0683
head 3.33117 1.46922 8.17693
rclavicle 9.14409e-015 -6.2816e-014
rhumerus 67.5512 -29.1317 -22.976
rradius 49.4992
rwrist 0.535965
rhand -33.1374 0.954828
rfingers 7.12502
rthumb -6.3469 -28.9301
lclavicle 9.14409e-015 -6.2816e-014
lhumerus 28.4511 -2.84888 -3.64923
lradius 66.568
lwrist 0.1335
lhand -10.9028 19.6458
lfingers 7.12502
lthumb 15.1141 49.074
rfemur -4.08868 3.79625 14.7328
rtibia 41.5143
rfoot 0.378061 3.61912
rtoes -9.46651
lfemur -11.9786 -6.61025 -22.999
ltibia 32.8007
lfoot 12.3289 0.993032
ltoes -23.4287
619
root -1.8365 18.8186 4.26899 -189.99 -86.3334 188.634
lowerback 2.94352 1.29429 -4.6701
upperback -6.14245 1.55552 4.19415
thorax -8.41851 1.16842 6.96473
lowerneck -22.119 -0.389748 -11.9393
upperneck -0.73485 0.872109 19.1967
head 3.30327 1.27831 8.23556
rclavicle 1.86858e-014 -1.51076e-014
rhumerus 68.8537 -30.0116 -23.413
rradius 46.617
rwrist 1.03279
rhand -32.5671 0.309539
rfingers 7.12502
rthumb -5.79625 -29.5912
lclavicle 1.86858e-014 -1.51076e-014
lhumerus 27.7045 -4.16085 -3.41657
lradius 69.0018
lwrist 0.609209
lhand -9.99976 19.7214
lfingers 7.12502
lthumb 15.9839 49.0819
rfemur -4.27339 3.54375 15.8197
rtibia 41.1521
rfoot 0.188591 4.22419
rtoes -9.70627
lfemur -12.3329 -6.65507 -22.4302
ltibia 33.3631
lfoot 12.5361 0.358635
ltoes -23.3581
620
root -1.86392 18.8189 4.2518 -197.049 -86.4424 195.719
lowerback 3.11464 1.41615 -4.39039
upperback -6.17829 1.70966 3.68713
thorax -8.54534 1.21352 6.23226
lowerneck -22.1384 -0.7452 -12.0244
upperneck -0.996245 0.454423 19.1488
head 3.29547 1.06426 8.19529
rclavicle -4.77083e-015 2.14687e-014
rhumerus 69.3683 -31.4229 -22.9773
rradius 44.0616
rwrist 0.792237
rhand -31.8334 0.258338
rfingers 7.12502
rthumb -5.08788 -29.6606
lclavicle -4.77083e-015 2.14687e-014
lhumerus 26.8754 -5.40473 -3.08873
lradius 71.4262
lwrist 1.49303
lhand -9.21949 19.5972
lfingers 7.12502
lthumb 16.7352 48.8959
rfemur -4.43074 3.50452 17.0239
rtibia 40.7771
rfoot 0.0183267 4.42697
rtoes -9.6534
lfemur -12.7004 -6.50284 -21.7796
ltibia 33.9549
lfoot 12.7019 -0.601878
ltoes -24.1298
621
root -1.88907 18.8133 4.23346 -204.277 -86.4862 202.962
lowerback 3.34222 1.54847 -4.13466
upperback -6.22586 1.87272 3.17842
thorax -8.7176 1.26471 5.51335
lowerneck -22.2905 -1.16566 -12.2028
upperneck -1.10881 -0.0388965 19.2084
head 3.36688 0.82864 8.20688
rclavicle 2.98177e-016 2.38542e-014
rhumerus 70.5421 -32.4348 -23.395
rradius 41.1969
rwrist 1.22599
rhand -31.5416 1.07768
rfingers 7.12502
rthumb -4.80611 -28.8478
lclavicle 2.98177e-016 2.38542e-014
lhumerus 25.9312 -6.65438 -2.50029
lradius 73.8001
lwrist 2.41294
lhand -8.5134 19.7788
lfingers 7.12502
lthumb 17.4148 49.0187
rfemur -4.60535 3.64004 18.2694
rtibia 40.4145
rfoot -0.300229 4.43556
rtoes -10.6088
lfemur -13.067 -6.13007 -21.1156
ltibia 34.5394
lfoot 12.8281 -1.80056
ltoes -24.7227
622
root -1.91411 18.8058 4.22144 -209.862 -86.4561 208.638
lowerback 3.53025 1.7023 -3.83713
upperback -6.3399 2.06482 2.68025
thorax -8.93839 1.32713 4.78156
lowerneck -22.1427 -1.63129 -12.6071
upperneck -1.37701 -0.54686 19.3892
head 3.35402 0.574916 8.28916
rclavicle -1.63997e-015 -1.39149e-014
rhumerus 72.0277 -33.2259 -24.1326
rradius 38.4039
rwrist 1.78867
rhand -31.148 0.881799
rfingers 7.12502
rthumb -4.42609 -29.052
lclavicle -1.63997e-015 -1.39149e-014
lhumerus 24.9144 -8.00118 -1.81057
lradius 75.9328
lwrist 3.09454
lhand -8.07552 19.5172
lfingers 7.12502
lthumb 17.8362 48.7193
rfemur -4.93473 3.81983 19.387
rtibia 40.0764
rfoot -0.586414 4.49359
rtoes -11.6825
lfemur -13.4476 -5.89579 -20.5288
ltibia 35.0965
lfoot 12.8979 -2.61278
ltoes -24.1079
623
root -1.93908 18.7926 4.20934 -212.292 -86.4745 211.147
lowerback 3.71673 1.9495 -3.65416
upperback -6.4605 2.35683 1.96586
thorax -9.16643 1.43572 3.8714
lowerneck -21.8971 -2.06864 -12.7382
upperneck -1.69026 -1.09173 19.5235
head 3.32018 0.2943 8.30025
rclavicle 2.93207e-014 2.23136e-014
rhumerus 72.5455 -34.3993 -24.5914
rradius 36.241
rwrist 2.38015
rhand -30.5231 0.152497
rfingers 7.12502
rthumb -3.82261 -29.793
lclavicle 2.93207e-014 2.23136e-014
lhumerus 24.1759 -9.39992 -1.16009
lradius 77.8463
lwrist 4.17439
lhand -8.53837 18.4062
lfingers 7.12502
lthumb 17.3908 47.6482
rfemur -5.32085 3.71354 20.1755
rtibia 39.7503
rfoot -0.55439 4.71563
rtoes -11.1284
lfemur -13.7795 -5.73437 -20.1717
ltibia 35.6481
lfoot 12.9301 -3.4824
ltoes -24.0584
624
root -1.96656 18.7784 4.19653 -214.368 -86.4089 213.304
lowerback 3.81111 2.10024 -3.53871
upperback -6.50064 2.53066 1.47704
thorax -9.24971 1.49473 3.25923
lowerneck -21.9104 -2.29886 -13.4746
upperneck -1.78753 -1.18889 19.5894
head 3.31377 0.253995 8.44526
rclavicle -3.40419e-015 -1.19271e-014
rhumerus 74.4655 -35.2851 -26.4034
rradius 33.8612
rwrist 3.93336
rhand -30.0893 -0.19041
rfingers 7.12502
rthumb -3.40366 -30.143
lclavicle -3.40419e-015 -1.19271e-014
lhumerus 22.7663 -10.7587 -0.0737751
lradius 79.8182
lwrist 5.07238
lhand -8.65585 17.8225
lfingers 7.12502
lthumb 17.2777 47.0745
rfemur -5.7549 3.54585 20.9369
rtibia 39.4035
rfoot -0.2688 4.96953
rtoes -10.385
lfemur -14.1331 -5.47097 -19.8214
ltibia 36.2163
lfoot 12.8469 -4.50038
ltoes -24.895
625
root -1.99631 18.7645 4.18665 -217.315 -86.1814 216.353
lowerback 3.79217 2.08309 -3.21045
upperback -6.51854 2.51467 1.21866
thorax -9.22317 1.45267 2.80188
lowerneck -21.6284 -2.53692 -14.1349
upperneck -2.12802 -1.31652 19.5177
head 3.19139 0.171422 8.51778
rclavicle 6.22693e-014 2.70347e-014
rhumerus 77.0732 -35.7651 -28.9348
rradius 31.9379
rwrist 5.28098
rhand -29.8168 -0.987381
rfingers 7.12502
rthumb -3.14056 -30.944
lclavicle 6.22693e-014 2.70347e-014
lhumerus 20.3092 -11.9586 1.3379
lradius 81.8152
lwrist 5.49749
lhand -7.98045 17.9271
lfingers 7.12502
lthumb 17.9276 47.1208
rfemur -6.19279 3.61261 21.8757
rtibia 39.0477
rfoot -0.156193 5.02876
rtoes -9.62234
lfemur -14.5166 -5.18783 -19.3306
ltibia 36.7918
lfoot 12.7394 -5.24012
ltoes -24.8584
626
root -2.02508 18.7458 4.18028 -219.995 -85.8921 219.094
lowerback 3.80801 2.23274 -2.58533
upperback -6.59057 2.7168 0.601671
thorax -9.2552 1.48205 1.77015
lowerneck -20.9851 -2.81855 -14.1828
upperneck -2.66842 -1.68986 19.5102
head 2.99993 -0.0544827 8.47379
rclavicle -5.96354e-016 -1.11319e-014
rhumerus 79.16 -36.3677 -31.847
rradius 30.2448
rwrist 6.74403
rhand -29.7451 -2.03787
rfingers 7.12502
rthumb -3.07126 -31.9955
lclavicle -5.96354e-016 -1.11319e-014
lhumerus 18.9124 -13.0118 2.64878
lradius 82.9191
lwrist 5.9584
lhand -7.62906 17.567
lfingers 7.12502
lthumb 18.2657 46.7294
rfemur -6.5719 3.72158 22.8524
rtibia 38.6709
rfoot -0.188655 4.92609
rtoes -9.59267
lfemur -14.8436 -4.83091 -18.8162
ltibia 37.3898
lfoot 12.6296 -5.91626
ltoes -24.6394
